<?xml version="1.0"?>
<svg xmlns="http://www.w3.org/2000/svg" id="Layer_1" data-name="Layer 1" viewBox="0 0 512 512" width="512" height="512"><title>Place</title><path d="M256,17.68c112.43,0,203.93,87.31,203.93,194.96C459.93,363.95,256,494.32,256,494.32S52.07,363.95,52.07,212.64C52.07,104.99,143.57,17.68,256,17.68ZM404.89,218.01A148.89,148.89,0,1,0,256,366.91,148.89,148.89,0,0,0,404.89,218.01Z" style="fill:#00efd1"/><path d="M256,221.52l6.55-7.12c24.92-26.65,25.21-69.82,0-96.18l-6.66-7.24-6.66,7.24c-24.63,26.36-24.92,69.53,0,96.18l6.66,7.24Zm0-152.4A148.9,148.9,0,1,1,107.11,218.01,148.89,148.89,0,0,1,256,69.12Zm79.3,148.09.41-9.84-9.84.41c-36.05,1.23-66.78,31.55-68.01,68.01l-.41,9.84,9.84-.41C303.75,283.99,334.48,253.67,335.3,217.21Zm-80.75,68.42-.41-9.84c-1.23-36.46-31.96-66.78-68.01-68.01l-9.84-.41.41,9.84c.82,36.46,31.55,66.78,68.01,68.01Z" style="fill:#fedb41"/><path d="M335.71,207.37l-.41,9.84c-.82,36.46-31.55,66.78-68.01,68.01l-9.84.41.41-9.84c1.23-36.46,31.96-66.78,68.01-68.01Z" style="fill:#81c460"/><path d="M256,221.52l-.11.12-6.66-7.24c-24.92-26.65-24.63-69.82,0-96.18l6.66-7.24,6.66,7.24c25.21,26.36,24.92,69.53,0,96.18Z" style="fill:#81c460"/><path d="M254.14,275.79l.41,9.84-9.84-.41c-36.46-1.23-67.19-31.55-68.01-68.01l-.41-9.84,9.84.41C222.18,209.01,252.91,239.33,254.14,275.79Z" style="fill:#81c460"/><path d="M335.377,199.377l-9.779.408c-25.116.856-47.742,14.317-61.6,34.064V224.64l4.394-4.776c27.9-29.843,27.894-77.877-.008-107.116l-6.609-7.184a8,8,0,0,0-11.776,0l-6.616,7.194c-27.6,29.54-27.6,77.588-.042,107.057L248,224.88v8.977c-13.852-19.758-36.461-33.215-61.537-34.07l-9.84-.41A8,8,0,0,0,168.3,207.7l.407,9.765c.952,40.4,34.91,74.37,75.673,75.745l3.623.151V325.02a8,8,0,0,0,16,0V293.364l3.56-.148c40.826-1.378,74.784-35.351,75.736-75.748l.407-9.765a8,8,0,0,0-8.326-8.326Zm-90.4,77.848c-32.517-1.1-59.56-28.1-60.281-60.2,0-.051,0-.1,0-.153l-.047-1.152,1.211.05c32.159,1.1,59.2,28.141,60.288,60.285,0,.021,0,.042,0,.063l.048,1.152Zm10.14-153.589.771-.839.772.839c.035.038.07.076.107.114,22.191,23.2,22.163,61.417-.107,85.234l-.772.839-.817-.887C233.1,185.441,233.1,147.2,255.119,123.636Zm72.188,93.241c0,.051,0,.1,0,.153-.721,32.1-27.764,59.1-60.345,60.2l-1.152.048.05-1.215c1.084-32.144,28.129-59.187,60.348-60.287l1.151-.048Z" style="fill:#083863"/><path d="M256,9.68c-116.858,0-211.93,91.048-211.93,202.96,0,35.922,11.075,73.54,32.916,111.812,17.261,30.245,41.271,61,71.364,91.4C199.372,467.4,249.579,499.71,251.691,501.06a8,8,0,0,0,8.618,0c2.112-1.35,52.319-33.664,103.341-85.211,30.093-30.4,54.1-61.152,71.364-91.4,21.841-38.272,32.916-75.89,32.916-111.812C467.93,100.728,372.858,9.68,256,9.68Zm165.2,306.7c-16.532,29-39.646,58.609-68.7,87.993A677.641,677.641,0,0,1,256,484.717a676.515,676.515,0,0,1-96.278-80.124c-29.11-29.408-52.27-59.04-68.838-88.072C70.437,280.7,60.07,245.745,60.07,212.64,60.07,109.55,147.964,25.68,256,25.68s195.93,83.87,195.93,186.96C451.93,245.7,441.591,280.6,421.2,316.378Z" style="fill:#083863"/><path d="M256,61.12c-86.509,0-156.89,70.38-156.89,156.89S169.491,374.91,256,374.91s156.89-70.385,156.89-156.9S342.509,61.12,256,61.12Zm0,297.79c-77.687,0-140.89-63.207-140.89-140.9S178.313,77.12,256,77.12s140.89,63.2,140.89,140.89S333.687,358.91,256,358.91Z" style="fill:#083863"/></svg>
